<svg width="48" height="52" viewBox="0 0 48 52" fill="none" xmlns="http://www.w3.org/2000/svg">
<g filter="url(#filter0_d_2861_2383)">
<path d="M8 38V10C8 8.93913 8.42143 7.92172 9.17157 7.17157C9.92172 6.42143 10.9391 6 12 6H38.8C39.1183 6 39.4235 6.12643 39.6485 6.35147C39.8736 6.57652 40 6.88174 40 7.2V33.428M12 34H40M12 42H40" stroke="#3347C1" stroke-width="3" stroke-linecap="round"/>
<path d="M12 42C10.9391 42 9.92172 41.5786 9.17157 40.8284C8.42143 40.0783 8 39.0609 8 38C8 36.9391 8.42143 35.9217 9.17157 35.1716C9.92172 34.4214 10.9391 34 12 34" stroke="#3347C1" stroke-width="3" stroke-linecap="round" stroke-linejoin="round"/>
<path d="M18 14H30" stroke="#3347C1" stroke-width="3" stroke-linecap="round"/>
</g>
<defs>
<filter id="filter0_d_2861_2383" x="-4" y="0" width="56" height="56" filterUnits="userSpaceOnUse" color-interpolation-filters="sRGB">
<feFlood flood-opacity="0" result="BackgroundImageFix"/>
<feColorMatrix in="SourceAlpha" type="matrix" values="0 0 0 0 0 0 0 0 0 0 0 0 0 0 0 0 0 0 127 0" result="hardAlpha"/>
<feOffset dy="4"/>
<feGaussianBlur stdDeviation="2"/>
<feColorMatrix type="matrix" values="0 0 0 0 0.4 0 0 0 0 0 0 0 0 0 1 0 0 0 0.24 0"/>
<feBlend mode="normal" in2="BackgroundImageFix" result="effect1_dropShadow_2861_2383"/>
<feBlend mode="normal" in="SourceGraphic" in2="effect1_dropShadow_2861_2383" result="shape"/>
</filter>
</defs>
</svg>
